<?xml version="1.0" standalone="no"?>
<!DOCTYPE svg PUBLIC "-//W3C//DTD SVG 20010904//EN"
 "http://www.w3.org/TR/2001/REC-SVG-20010904/DTD/svg10.dtd">
<svg version="1.0" xmlns="http://www.w3.org/2000/svg"
 width="500.000000pt" height="500.000000pt" viewBox="0 0 500.000000 500.000000"
 preserveAspectRatio="xMidYMid meet">

<g transform="translate(0.000000,500.000000) scale(0.100000,-0.100000)"
fill="#000000" stroke="none">
<path d="M2956 3682 c-3 -5 -35 -88 -70 -183 -35 -96 -69 -186 -74 -200 l-10
-26 -84 14 c-105 18 -363 21 -448 4 -204 -38 -368 -130 -422 -236 -18 -34 -20
-51 -14 -120 17 -228 126 -423 290 -519 56 -33 66 -43 66 -67 0 -41 43 -85
108 -110 77 -30 296 -34 384 -6 78 24 128 68 128 112 0 31 5 37 61 66 80 43
160 132 209 234 54 111 73 192 74 306 1 90 -1 98 -28 137 -24 36 -83 82 -160
127 -16 9 -4 30 93 175 61 91 111 170 111 177 0 14 -36 36 -52 31 -5 -2 -56
-80 -112 -173 -77 -128 -108 -171 -124 -173 -12 -2 -22 1 -22 7 0 5 38 99 84
208 46 109 81 201 77 205 -12 12 -59 20 -65 10z m-271 -463 c99 -16 96 -14 79
-56 -17 -39 -17 -40 11 -45 14 -2 24 7 37 34 l18 38 53 -21 c122 -47 208 -130
210 -203 1 -46 -42 -107 -107 -150 -108 -72 -324 -126 -501 -126 -162 0 -355
44 -458 105 -55 31 -124 104 -133 139 -16 65 64 170 167 219 162 76 405 102
624 66z m-764 -399 c252 -230 884 -232 1138 -4 28 26 54 44 57 41 3 -2 -2 -33
-11 -68 -41 -161 -148 -307 -274 -373 -56 -29 -68 -40 -64 -56 14 -54 -109
-101 -265 -101 -179 0 -272 37 -272 108 0 12 -21 29 -66 52 -141 73 -246 224
-288 414 -4 15 -5 27 -2 27 2 0 23 -18 47 -40z"/>
<path d="M2503 3155 c49 -8 76 -19 94 -37 57 -57 -32 -68 -115 -14 -108 69
-221 74 -356 15 -43 -19 -71 -35 -63 -37 9 -2 39 9 69 24 41 21 71 28 134 32
93 5 130 -4 214 -55 49 -29 66 -34 107 -31 42 3 48 6 51 26 8 51 -66 93 -158
91 -42 -1 -41 -2 23 -14z"/>
<path d="M2260 3107 c-42 -14 -51 -42 -18 -52 13 -4 34 -17 48 -30 14 -12 39
-30 57 -39 40 -20 73 -62 73 -92 0 -13 5 -24 10 -24 6 0 10 15 10 33 0 37 -31
73 -90 102 l-35 18 41 12 c23 7 46 15 52 19 6 3 24 -8 41 -25 23 -22 31 -40
31 -65 0 -21 4 -33 10 -29 6 3 10 21 10 38 0 26 -12 43 -59 90 -54 52 -63 57
-102 56 -24 0 -60 -5 -79 -12z m128 -29 c3 -15 -5 -18 -51 -18 -58 0 -87 7
-87 20 0 13 29 18 85 17 39 -2 51 -6 53 -19z"/>
<path d="M2074 3040 c-31 -12 -83 -68 -90 -97 -7 -28 15 -64 60 -97 22 -17 42
-21 101 -21 91 0 110 13 70 47 -26 23 -27 25 -10 42 25 24 62 14 103 -30 47
-50 40 -69 -25 -69 -60 1 -61 -10 -2 -19 61 -10 89 11 89 68 0 92 -104 154
-212 126 -76 -21 -116 -84 -69 -110 30 -15 36 -12 17 9 -23 25 -13 56 22 69
82 32 154 21 197 -29 34 -41 26 -46 -20 -14 -43 28 -96 33 -119 9 -20 -19 -20
-38 -1 -54 30 -24 16 -32 -50 -28 -55 3 -69 8 -95 33 -40 38 -39 74 1 114 43
43 97 56 160 38 57 -17 65 -12 14 9 -37 15 -108 18 -141 4z"/>
<path d="M2768 3040 c-169 -29 -262 -186 -146 -246 51 -27 179 -16 247 21 132
72 133 194 1 224 -25 6 -47 10 -50 10 -3 -1 -26 -5 -52 -9z"/>
<path d="M2475 2780 c-3 -5 -23 -11 -43 -11 -32 -2 -33 -3 -8 -6 35 -6 76 4
76 17 0 13 -17 13 -25 0z"/>
<path d="M1506 1723 c11 -104 14 -113 34 -113 16 0 20 7 20 34 0 18 3 54 6 80
l7 46 -36 0 -37 0 6 -47z"/>
<path d="M0 1545 l0 -215 35 0 34 0 3 106 3 107 94 -107 c93 -105 94 -106 138
-106 l45 0 -102 110 -102 110 95 102 96 103 -37 3 c-35 4 -41 -1 -134 -99
l-98 -103 0 102 0 102 -35 0 -35 0 0 -215z"/>
<path d="M420 1545 l0 -215 35 0 35 0 0 215 0 215 -35 0 -35 0 0 -215z"/>
<path d="M590 1545 l0 -215 30 0 30 0 0 145 c0 80 3 145 8 145 4 -1 57 -66
117 -145 84 -111 115 -145 133 -145 l22 0 0 215 0 215 -30 0 -29 0 -3 -152 -3
-153 -118 153 c-162 209 -157 211 -157 -63z"/>
<path d="M1134 1741 c-70 -32 -124 -117 -124 -197 0 -54 22 -106 62 -150 128
-139 357 -60 358 124 l0 42 -100 0 -100 0 0 -30 0 -30 65 0 c59 0 65 -2 65
-21 0 -12 -15 -36 -34 -55 -31 -31 -40 -34 -91 -34 -69 0 -105 19 -134 70 -45
81 -18 183 59 223 46 24 120 18 162 -13 l30 -22 21 20 c18 18 19 23 6 38 -42
51 -169 70 -245 35z"/>
<path d="M1713 1740 c-40 -24 -53 -48 -53 -99 0 -53 29 -85 104 -115 75 -31
96 -49 96 -85 0 -39 -23 -55 -81 -55 -36 0 -54 6 -72 22 -28 27 -39 27 -60 4
-16 -17 -16 -20 6 -40 102 -96 277 -46 277 78 0 38 -25 84 -54 99 -12 6 -46
21 -78 35 -68 29 -87 56 -63 92 12 19 24 24 56 24 22 0 51 -7 65 -17 24 -15
26 -15 46 4 24 25 20 35 -26 57 -47 22 -123 21 -163 -4z"/>
<path d="M2130 1545 l0 -215 35 0 34 0 3 146 3 146 110 -143 c89 -116 116
-145 138 -147 l27 -3 -2 213 -3 213 -32 3 -32 3 -3 -151 -3 -151 -115 150
c-88 116 -120 151 -137 151 l-23 0 0 -215z"/>
<path d="M2669 1737 c-78 -41 -129 -143 -113 -228 34 -178 244 -247 367 -121
84 86 89 206 14 298 -61 74 -180 97 -268 51z m171 -55 c77 -38 104 -141 59
-222 -31 -55 -72 -74 -144 -68 -51 4 -62 9 -91 41 -52 56 -57 134 -14 205 36
58 122 79 190 44z"/>
<path d="M3180 1744 c-46 -20 -87 -60 -112 -108 -29 -57 -23 -158 15 -214 112
-171 380 -104 395 98 5 71 -10 120 -51 167 -59 68 -166 92 -247 57z m160 -66
c54 -37 73 -70 73 -130 1 -99 -54 -158 -148 -158 -80 0 -129 40 -149 122 -15
62 31 154 89 178 39 17 101 11 135 -12z"/>
<path d="M3560 1546 l0 -216 108 0 c96 0 114 3 159 25 69 35 106 88 111 165 7
99 -30 170 -112 212 -32 17 -64 22 -153 26 l-113 5 0 -217z m248 127 c92 -68
85 -221 -12 -267 -21 -10 -60 -16 -100 -16 l-66 0 0 156 0 157 76 -5 c54 -4
83 -11 102 -25z"/>
<path d="M4020 1545 l0 -215 135 0 135 0 0 30 0 30 -100 0 -100 0 0 185 0 185
-35 0 -35 0 0 -215z"/>
<path d="M4360 1545 l0 -215 145 0 145 0 0 30 0 30 -110 0 -110 0 0 65 0 65
100 0 100 0 0 30 0 30 -100 0 -100 0 0 60 0 60 110 0 110 0 0 30 0 30 -145 0
-145 0 0 -215z"/>
<path d="M4783 1740 c-41 -24 -53 -48 -53 -103 0 -55 30 -89 100 -112 84 -28
119 -70 92 -112 -24 -37 -111 -37 -158 0 l-26 20 -20 -20 -20 -20 27 -26 c76
-70 227 -53 261 28 31 76 3 133 -84 171 -96 43 -102 47 -108 71 -14 56 74 86
128 43 25 -19 25 -19 47 4 20 22 20 23 4 38 -50 43 -135 52 -190 18z"/>
</g>
</svg>
